<?xml version="1.0" encoding="UTF-8" standalone="no"?>
<!-- Created with Inkscape (http://www.inkscape.org/) -->

<svg
   xmlns:dc="http://purl.org/dc/elements/1.1/"
   xmlns:cc="http://creativecommons.org/ns#"
   xmlns:rdf="http://www.w3.org/1999/02/22-rdf-syntax-ns#"
   xmlns:svg="http://www.w3.org/2000/svg"
   xmlns="http://www.w3.org/2000/svg"
   xmlns:sodipodi="http://sodipodi.sourceforge.net/DTD/sodipodi-0.dtd"
   xmlns:inkscape="http://www.inkscape.org/namespaces/inkscape"
   width="512"
   height="512"
   viewBox="0 0 512.00001 512.00001"
   id="svg2"
   version="1.1"
   inkscape:version="0.91 r13725"
   sodipodi:docname="drawing.svg"
   inkscape:export-filename="/home/noah/test/svg composite/face.png"
   inkscape:export-xdpi="90"
   inkscape:export-ydpi="90">
  <defs
     id="defs4" />
  <sodipodi:namedview
     id="base"
     pagecolor="#ffffff"
     bordercolor="#666666"
     borderopacity="1.0"
     inkscape:pageopacity="0.0"
     inkscape:pageshadow="2"
     inkscape:zoom="0.98994949"
     inkscape:cx="189.96745"
     inkscape:cy="249.56949"
     inkscape:document-units="px"
     inkscape:current-layer="layer1"
     showgrid="false"
     inkscape:window-width="1920"
     inkscape:window-height="992"
     inkscape:window-x="0"
     inkscape:window-y="27"
     inkscape:window-maximized="1"
     units="px">
    <inkscape:grid
       type="xygrid"
       id="grid3340" />
  </sodipodi:namedview>
  <metadata
     id="metadata7">
    <rdf:RDF>
      <cc:Work
         rdf:about="">
        <dc:format>image/svg+xml</dc:format>
        <dc:type
           rdf:resource="http://purl.org/dc/dcmitype/StillImage" />
        <dc:title></dc:title>
      </cc:Work>
    </rdf:RDF>
  </metadata>
  <g
     inkscape:groupmode="layer"
     id="layer5"
     inkscape:label="Head"
     transform="translate(0,-540.36216)"
     style="display:inline">
    <g
       inkscape:label="Face"
       inkscape:groupmode="layer"
       id="layer1"
       style="display:inline">
      <path
         style="opacity:0.98999999;fill:#ffc08e;fill-opacity:1;fill-rule:evenodd;stroke:#000000;stroke-width:8;stroke-linecap:butt;stroke-linejoin:miter;stroke-miterlimit:4;stroke-dasharray:none;stroke-opacity:1"
         d="m 263.86247,662.05571 a 156.92953,156.92953 0 0 0 -143.33398,93.32032 65,65 0 0 0 -8.8086,-0.67579 65,65 0 0 0 -64.999999,65 65,65 0 0 0 64.999999,65 65,65 0 0 0 9.49805,-0.75781 156.92953,156.92953 0 0 0 142.64453,91.97266 156.92953,156.92953 0 0 0 138.06836,-82.62696 57.142857,40 0 0 0 14.78906,1.41211 57.142857,40 0 0 0 57.14258,-40 57.142857,40 0 0 0 -53.27734,-39.86523 156.92953,156.92953 0 0 0 -156.72266,-152.7793 z"
         id="path3342"
         inkscape:connector-curvature="0" />
      <path
         style="opacity:0.98999999;fill:#000000;fill-opacity:1;fill-rule:evenodd;stroke:none;stroke-width:1px;stroke-linecap:butt;stroke-linejoin:miter;stroke-opacity:1"
         d="m 103.16559,849.8614 -29.821649,1.29891 9.66355,-3.66668 10.21634,-4.60894 6.11369,-0.13333 1.111739,-10.23258 z"
         id="path4174"
         inkscape:connector-curvature="0"
         sodipodi:nodetypes="ccccccc" />
      <path
         sodipodi:nodetypes="ccccccc"
         inkscape:connector-curvature="0"
         id="path4176"
         d="m 71.587021,851.74605 9.69534,-64.21464 1.04768,21.55378 2.05309,22.95498 -2.15924,13.134 12.78354,4.73265 z"
         style="opacity:0.98999999;fill:#000000;fill-opacity:1;fill-rule:evenodd;stroke:none;stroke-width:1px;stroke-linecap:butt;stroke-linejoin:miter;stroke-opacity:1" />
      <path
         style="opacity:0.98999999;fill:#000000;fill-opacity:1;fill-rule:evenodd;stroke:none;stroke-width:1px;stroke-linecap:butt;stroke-linejoin:miter;stroke-opacity:1"
         d="m 80.016591,788.29137 48.764559,8.71193 -16.45631,0.35606 -17.545369,1.0939 -9.97033,-1.91625 -3.87127,9.65024 z"
         id="path4178"
         inkscape:connector-curvature="0"
         sodipodi:nodetypes="ccccccc" />
    </g>
    <g
       inkscape:groupmode="layer"
       id="layer3"
       inkscape:label="Mouth"
       style="display:inline">
      <g
         id="g4224"
         style="opacity:0.98999999"
         transform="translate(-98.994949,573.76665)">
        <path
           transform="matrix(0.94651404,0.32266264,-0.2564017,0.96657031,0,0)"
           d="m 544.74482,170.37777 a 54.923695,32.892033 0 0 1 -27.43088,28.72366 54.923695,32.892033 0 0 1 -55.25309,-0.0943 54.923695,32.892033 0 0 1 -27.15703,-28.81684 l 54.91887,0.43599 z"
           sodipodi:end="3.1548481"
           sodipodi:start="6.2756302"
           sodipodi:ry="32.892033"
           sodipodi:rx="54.923695"
           sodipodi:cy="170.62627"
           sodipodi:cx="489.82269"
           sodipodi:type="arc"
           id="path4180"
           style="fill:#000000;fill-opacity:1;stroke:none;stroke-width:8;stroke-miterlimit:4;stroke-dasharray:none;stroke-opacity:1" />
        <path
           id="path4186"
           d="m 368.00586,304.82812 a 54.996854,32.769561 21.019383 0 0 -0.32422,10.0918 l 99.85352,33.78125 a 54.996854,32.769561 21.019383 0 0 4.38867,-8.25 L 419.875,322.9707 368.00586,304.82812 Z"
           style="fill:#ffffff;fill-opacity:1;fill-rule:evenodd;stroke:none;stroke-width:1px;stroke-linecap:butt;stroke-linejoin:miter;stroke-opacity:1"
           inkscape:connector-curvature="0" />
      </g>
    </g>
    <g
       inkscape:groupmode="layer"
       id="layer2"
       inkscape:label="Eyes"
       style="display:inline">
      <g
         id="g4158"
         transform="matrix(1.4363,0,0,1.2144504,-290.3114,555.32572)"
         style="opacity:0.98999999">
        <ellipse
           ry="43.571426"
           rx="33.571426"
           cy="200.21938"
           cx="410.71426"
           id="path4150"
           style="fill:#ffffff;fill-opacity:1;stroke:none;stroke-width:8;stroke-miterlimit:4;stroke-dasharray:none;stroke-opacity:1" />
        <ellipse
           ry="35.714283"
           rx="22.142855"
           cy="208.07652"
           cx="422.14282"
           id="ellipse4154"
           style="fill:#0000ff;fill-opacity:1;stroke:none;stroke-width:8;stroke-miterlimit:4;stroke-dasharray:none;stroke-opacity:1" />
        <ellipse
           style="fill:#000000;fill-opacity:1;stroke:none;stroke-width:8;stroke-miterlimit:4;stroke-dasharray:none;stroke-opacity:1"
           id="ellipse4152"
           cx="425.2092"
           cy="213.96411"
           rx="17.142855"
           ry="23.939083" />
        <ellipse
           ry="8.0291805"
           rx="3.2532573"
           cy="206.13542"
           cx="431.56326"
           id="ellipse4156"
           style="fill:#ffffff;fill-opacity:1;stroke:none;stroke-width:8;stroke-miterlimit:4;stroke-dasharray:none;stroke-opacity:1" />
      </g>
      <g
         transform="translate(-34.345186,573.26157)"
         id="g4164"
         style="opacity:0.98999999">
        <ellipse
           style="fill:#ffffff;fill-opacity:1;stroke:none;stroke-width:8;stroke-miterlimit:4;stroke-dasharray:none;stroke-opacity:1"
           id="ellipse4166"
           cx="410.71426"
           cy="200.21938"
           rx="33.571426"
           ry="43.571426" />
        <ellipse
           style="fill:#0000ff;fill-opacity:1;stroke:none;stroke-width:8;stroke-miterlimit:4;stroke-dasharray:none;stroke-opacity:1"
           id="ellipse4168"
           cx="422.14282"
           cy="208.07652"
           rx="22.142855"
           ry="35.714283" />
        <ellipse
           ry="23.939083"
           rx="17.142855"
           cy="213.96411"
           cx="425.2092"
           id="ellipse4170"
           style="fill:#000000;fill-opacity:1;stroke:none;stroke-width:8;stroke-miterlimit:4;stroke-dasharray:none;stroke-opacity:1" />
        <ellipse
           style="fill:#ffffff;fill-opacity:1;stroke:none;stroke-width:8;stroke-miterlimit:4;stroke-dasharray:none;stroke-opacity:1"
           id="ellipse4172"
           cx="431.56326"
           cy="206.13542"
           rx="3.2532573"
           ry="8.0291805" />
      </g>
    </g>
    <g
       inkscape:groupmode="layer"
       id="layer4"
       inkscape:label="Hair 1"
       style="display:inline">
      <path
         style="fill:#803300;fill-rule:evenodd;stroke:none;stroke-width:1px;stroke-linecap:butt;stroke-linejoin:miter;stroke-opacity:1"
         d="m 377.43362,708.986 c 32.50408,5.34561 92.14286,35.71428 92.14286,35.71428 l -51.42857,-72.85715 67.85714,21.42858 -57.85714,-67.14286 57.14285,-10.71429 -92.14285,1.42857 42.14285,-15 -69.28571,0 2.85714,-15 c 0,0 -58.58326,15.30234 -88.57142,18.57143 -65.34889,7.12387 -117.76487,7.66874 -165.71429,37.85715 -30.114159,18.95953 -66.428569,83.57143 -66.428569,83.57143 0,0 -46.9248704,49.60916 -45.0000004,66.42857 4.32556,37.79646 37.8571404,47.14286 37.8571404,47.14286 0,0 48.75775,-14.17455 72.857139,-22.14286 26.17014,-8.65299 56.26451,-10.72505 77.85715,-27.85714 13.76195,-10.91905 15.74089,-32.28596 28.57142,-44.28572 16.50165,-15.43318 37.54023,-26.72353 59.28572,-32.85714 31.42418,-8.86362 65.63961,-9.58419 97.85714,-4.28571 z"
         id="path4191"
         inkscape:connector-curvature="0"
         sodipodi:nodetypes="scccccccccsacscsssss" />
    </g>
    <g
       inkscape:groupmode="layer"
       id="layer6"
       inkscape:label="Hair 2"
       style="display:none">
      <path
         style="fill:#a05a2c;fill-opacity:1;fill-rule:evenodd;stroke:#9c3b00;stroke-width:8;stroke-linecap:butt;stroke-linejoin:miter;stroke-miterlimit:4;stroke-dasharray:none;stroke-opacity:1"
         d="m 263.86247,662.05571 a 156.92953,156.92953 0 0 0 -143.33398,93.32032 65,65 0 0 0 -6.05469,-0.57422 c 12.09275,7.12016 30.44939,8.08387 44.38867,11.32617 18.35711,4.26989 38.34783,8.89507 56.42774,3.57226 11.92296,-3.51018 19.4887,-15.51 30,-22.14257 13.69249,-8.63987 27.58114,-17.49396 42.85742,-22.85743 14.62822,-5.13594 30.29351,-6.97683 45.71484,-8.57226 16.2778,-1.68403 38.3122,8.32396 53.86914,6.98047 A 156.92953,156.92953 0 0 0 263.86247,662.05571 Z"
         id="path4271"
         inkscape:connector-curvature="0" />
    </g>
  </g>
</svg>
